<svg xmlns="http://www.w3.org/2000/svg" xmlns:xlink="http://www.w3.org/1999/xlink" xmlns:inkscape="http://www.inkscape.org/namespaces/inkscape" version="1.1" width="2232" height="2232" viewBox="0 0 2232 2232">
<defs>
<clipPath id="clip_0">
<path transform="matrix(1,0,0,-1,0,2232)" d="M0 2232H2232V0H0Z"/>
</clipPath>
</defs>
<g inkscape:groupmode="layer" inkscape:label="Layer 1">
<g clip-path="url(#clip_0)">
<path transform="matrix(1,0,0,-1,351.5767,1036.7979)" d="M0 0C64.316-5.488 126.88-5.346 191.084 .426 158.871 25.238 128.006 48.933 97.28 72.805 94.326 75.1 92.974 73.382 91.062 71.874 80.161 63.271 69.231 54.705 58.332 46.1 39.337 31.105 20.358 16.091 0 0M153.854-221.386C153.656-221.392 153.458-221.397 153.261-221.404 153.261-229.597 153.331-237.789 153.229-245.979 153.183-249.75 153.991-251.813 158.58-251.759 190.024-251.378 221.359-249.344 252.312-243.841 273.548-240.065 288.763-228.294 293.174-206.044 295.118-196.238 292.122-183.704 283.594-181.119 277.031-179.13 269.678-178.805 263.875-180.958 248.37-186.709 232.244-184.768 216.567-185.856 196.137-187.275 175.544-188.89 154.961-187.885 152.134-187.747 151.231-188.445 151.587-191.721 152.656-201.575 153.141-211.492 153.854-221.386M22.316-251.693C24.054-251.693 25.792-251.687 27.53-251.694 39.336-251.74 37.144-252.41 37.36-241.779 37.699-225.176 36.186-208.486 39.182-192.008 39.979-187.627 37.849-187.849 34.811-187.744 20.3-187.246 5.802-187.823-8.742-186.622-35.396-184.423-62.136-183.182-88.86-181.983-100.376-181.468-103.401-184.896-104.069-196.711-105.222-217.12-90.863-236.464-70.081-242.933-60.712-245.849-51.023-245.508-41.47-246.602-20.264-249.031 .984-250.838 22.316-251.693M94.467-437.154C108.341-437.255 116.076-427.938 113.149-414.153 112.128-409.341 110.146-404.72 108.457-400.064 100.66-378.582 105.607-354.705 127.334-340.889 143.025-330.91 159.557-323.578 176.864-317.341 193.069-311.5 209.855-307.017 224.46-297.239 232.821-291.642 240.558-285.582 245.378-276.526 247.106-273.28 250.5-269.084 248.635-266.428 246.456-263.327 241.108-265.034 237.502-265.748 217.118-269.782 196.479-271.549 175.82-272.621 127.542-275.129 79.24-277.455 30.888-274.245 13.072-273.062-4.765-272.217-22.488-269.83-33.964-268.284-45.493-267.131-57.009-265.9-59.007-265.687-62.037-264.689-60.884-268.864-57.818-279.967-54.06-291.528-44.634-298.17-24.053-312.67-.934-322.217 23.671-327.991 38.139-331.387 52.713-334.418 66.463-340.377 78.382-345.542 86.37-353.739 88.367-367.013 89.7-375.869 88.063-384.303 85.057-392.579 82.266-400.265 78.707-407.699 77.164-415.797 74.836-428.013 82.215-437.066 94.467-437.154M109.946-84.902C122.26-84.902 144.208-86.229 165.929-84.568 193.491-82.462 221.199-81.833 248.62-77.583 259.107-75.958 259.575-76.423 257.451-66.029 251.501-36.907 226.932-18.554 194.456-20.116 140.089-22.73 85.719-23.271 31.315-22.054 25.375-21.921 19.303-22.999 13.507-22.109-.353-19.983-14.209-19.361-27.808-22.544-53.215-28.49-67.547-48.959-69.67-71.463-70.042-75.404-68.908-77.067-64.569-77.445-44.318-79.208-24.13-82.652-3.868-83.098 30.89-83.862 65.614-86.628 109.946-84.902M-104.12-140.819C-104.246-154.545-100.547-160.613-89.696-160.672-72.867-160.764-56.428-164.091-39.758-165.176-13.247-166.901 13.288-168.27 39.813-169.785 43.27-169.982 46.601-170.421 48.894-166.604 59.842-148.379 76.306-141.038 97.239-141.505 115.847-141.92 130.374-149.195 140.377-164.833 142.851-168.699 145.468-170.16 149.962-169.937 157.586-169.56 165.199-169.143 172.813-168.667 192.036-167.466 211.31-167.08 230.516-165.357 248.732-163.724 266.966-162.281 285.204-160.9 287.529-160.725 288.789-159.85 289.732-157.853 295.255-146.169 297.528-134.478 291.345-122.155 281.903-103.342 263.116-94.498 239.01-98.849 212.592-103.617 185.879-104.938 159.208-105.406 111.521-106.246 63.809-106.109 16.115-105.634 8.116-105.555-.093-104.883-8.156-104.03-25.114-102.237-41.992-99.465-58.985-98.282-85.97-96.403-103.872-113.714-104.12-140.819M279.293-72.148C274.359-81.189 281.812-84.282 289.353-88.791 308.352-100.149 326.385-133.194 310.491-163.215 307.882-168.143 307.414-172.024 310.37-177.364 323.03-200.226 311.871-238.587 284.267-253.151 276.398-257.303 272.898-262.015 270.919-270.811 265.484-294.972 248.625-310.452 227.406-321.482 203.81-333.749 178.258-340.865 153.109-349.039 144.721-351.766 136.296-355.381 129.678-360.932 123.344-366.245 119.347-374.224 121.81-383.271 124.01-391.354 127.019-399.212 129.447-407.236 136.572-430.786 121.959-451.811 97.492-453.348 68.811-455.148 53.078-432.835 62.415-403.546 63.818-399.146 65.449-394.819 66.955-390.452 72.622-374.017 68.156-363.776 51.482-357.989 40.362-354.13 28.718-351.768 17.291-348.806-7.384-342.411-31.432-334.554-52.041-318.805-70.354-304.809-82.22-286.907-84.486-263.538-84.807-260.229-86.192-259.07-88.865-257.7-114.079-244.777-126.854-224.215-126.452-195.693-126.348-188.282-124.224-181.519-119.75-175.675-117.666-172.951-117.393-170.967-119.249-167.893-131.555-147.514-129.955-110.794-106.181-95.08-104.602-94.036-104.103-91.021-101.89-90.36-90.164-86.862-89.985-78.57-90.257-67.997-90.818-46.231-78.692-30.505-62.219-17.55-12.903 21.232 36.341 60.104 85.555 99.017 91.401 103.639 96.846 104.324 102.985 99.539 134.856 74.699 167.176 50.415 198.469 24.87 205.411 19.203 214.966 13.81 216.633 3.787 217.907-3.872 222.259-5.35 228.363-7.181 257.917-16.05 279.048-42.602 279.293-72.148" fill="#483215"/>
<path transform="matrix(1,0,0,-1,661.3765,1016.73977)" d="M0 0C-68.761 49.862-137.121 99.457-205.515 149.003-215.029 155.896-215.096 155.77-224.475 148.923-279.497 108.76-334.534 68.62-389.544 28.442-410.612 13.056-430.857-3.64-452.947-17.374-466.248-25.644-469.122-35.913-468.956-49.598-468.672-72.941-469.312-96.298-468.869-119.635-468.557-136.089-475.603-149.663-483.553-163.13-485.03-165.632-486.413-166.222-488.424-163.672-494.437-156.049-499.051-148.356-498.772-137.741-498.16-114.429-498.653-91.086-498.921-67.758-499.002-60.625-504.096-62.978-507.393-64.455-521.056-70.579-535.47-71.165-550.004-70.677-555.726-70.486-563.141-71.759-565.421-64.663-567.771-57.349-560.673-54.617-556.068-51.175-479.277 6.226-402.489 63.63-325.618 120.923-291.825 146.109-257.845 171.042-223.957 196.101-218.682 200.002-208.869 198.466-200.637 192.396-158.761 161.51-116.874 130.64-75.013 99.733-57.478 86.788-40.186 73.501-22.371 60.955-17.605 57.598-14.642 53.668-14.382 48.485-13.538 31.648-5.337 17.22-.018 1.849 .127 1.43 0 .918 0 0" fill="#483215"/>
<path transform="matrix(1,0,0,-1,721.9038,967.0322)" d="M0 0C-.626 4.563 .887 10.19-5.108 11.256-10.974 12.3-13.878 7.874-15.805 3.018-16.437 1.426-16.719-.301-17.231-1.944-18.521-6.081-18.781-9.851-13.688-11.587-8.202-13.458-2.292-11.091-.765-6.222-.116-4.153-.207-1.853 0 0M134.337-84.882C125.295-97.068 115.698-106.944 104.944-115.68 98.329-121.054 98.245-121.767 106.259-124.38 121.43-129.326 133.737-126.855 136.126-108.318 137.095-100.804 136.72-93.666 134.337-84.882M76.514-15.138C73.865-15.42 71.212-14.403 69.676-18.051 63.605-32.468 52.295-41.875 38.718-48.694 34.121-51.003 34.009-54.556 34.151-58.581 34.346-64.12 35.584-69.379 39.334-73.644 39.839-74.219 41.727-74.013 42.765-73.618 53.313-69.604 62.273-62.794 70.037-55.067 76.896-48.24 82.112-39.652 87.404-31.423 89.281-28.506 92.815-24.129 89.505-20.919 86.211-17.725 81.432-15.69 76.514-15.138M122.121-54.73C121.563-48.086 116.958-45.116 113.505-41.312 110.636-38.151 109.106-38.03 106.583-42.12 93.889-62.701 77.921-80.067 56.114-91.4 55.041-91.958 53.034-91.838 53.533-94.209 54.89-100.669 68.553-107.346 74.414-104.211 93.748-93.87 108.263-78.519 119.81-60.155 120.964-58.32 121.542-56.122 122.121-54.73M59.62 10.875C63.383 14.493 66.64 17.475 69.729 20.621 83.735 34.891 98.987 47.647 116.074 58.055 130.419 66.792 135.531 86.49 126.86 101.086 121.637 109.877 114.08 112.287 104.86 107.404 93.87 101.585 83.748 95.036 76.604 83.961 62.211 61.644 55.065 38.101 59.62 10.875M70.811-.675C99.412-5.245 126.538-7.18 152.976 3.395 167.334 9.138 178.162 18.955 183.339 33.997 188.729 49.661 180.943 60.248 164.575 59.685 162.608 59.617 160.64 59.33 158.694 59.01 136.597 55.371 118.569 43.476 100.958 30.659 89.418 22.261 79.915 12.022 70.811-.675M42.836 26.254C44.53 45.066 48.069 63.083 56.647 79.728 64.771 95.494 76.257 108.157 91.361 117.629 104.518 125.879 118.319 129.219 131.393 119.304 144.064 109.694 147.325 95.413 145.352 79.937 145.102 77.975 144.615 76.044 144.271 74.093 144.194 73.661 144.259 73.203 144.259 72.318 151.81 73.311 159.212 74.833 166.822 75.033 191.325 75.676 206.001 55.089 198.733 31.977 191.07 7.61 173.493-6.562 149.191-13.317 136.541-16.833 123.647-17.781 108.697-18.153 113.465-23.014 117.015-26.602 120.53-30.222 136.851-47.031 144.361-67.613 147.869-90.45 150.253-105.973 149.858-120.825 144.64-135.59 143.65-138.391 144.945-141.042 146.066-143.463 148.621-148.977 147.255-154.728 147.355-160.359 147.402-163.015 145.431-164.935 142.608-165.177 140.215-165.382 138.702-163.596 138.528-161.614 136.88-142.849 122.153-139.775 108.022-135.352 90-129.711 71.06-125.986 55.381-114.626 32.08-97.744 17.265-75.993 18.887-45.845 19.201-40.012 17.383-39.39 12.689-41.552 1.043-46.914-11.382-47.127-22.716-42.508-36.716-36.803-43.347-24.908-39.966-5.688-37.499 8.342-28.723 18.58-17.588 26.562-13.265 29.661-12.854 32.165-14.98 36.265-20.12 46.179-27.633 53.202-38.617 56.217-41.097 56.898-43.5 57.166-45.918 56.365-48.048 55.659-50.059 52.977-52.258 56.208-53.887 58.599-54.605 61.261-53.412 63.942-52.187 66.694-49.767 67.716-46.726 67.641-32.248 67.286-20.387 61.527-11.241 50.358-8.273 46.733-5.523 42.808-4.403 38.164-3.373 33.89-.389 34.544 2.547 34.938 6.699 35.495 5.114 38.199 4.541 40.523 2.542 48.638 1.569 57.071-1.858 64.746-4.583 70.847-7.644 77.12-16.172 76.433-18.333 76.258-19.243 77.741-19.52 79.615-19.934 82.417-19.735 85.072-17.319 87.078-14.858 89.12-11.673 89.17-9.724 87.455 .658 78.317 11.795 69.492 11.822 53.699 11.833 47.743 9.566 40.108 12.423 36.318 15.083 32.79 23.146 33.214 28.879 32.161 33.83 31.252 37.986 28.559 42.836 26.254" fill="#483215"/>
<path transform="matrix(1,0,0,-1,228.7178,1375.7119)" d="M0 0C-3.082 0-5.221 .035-7.358-.006-25.595-.354-41.373-5.96-52.608-21.232-53.753-22.789-55.859-24.211-55.092-26.316-54.059-29.158-51.198-27.833-49.247-27.795-37.677-27.563-27.262-23.359-17.458-17.625-10.444-13.523-4.361-8.317 0 0M-116.394 153.115C-105.732 132.656-70.797 109.585-47.077 107.338-53.353 132.958-87.279 163.661-116.394 153.115M-54.491 61.915C-61.817 66.363-69.698 65.607-77.186 66.738-100.707 70.291-128.829 55.373-139.214 34.109-140.898 30.662-141.221 29.369-136.542 28.553-113.258 24.49-92.934 30.807-74.755 45.222-68.018 50.563-61.475 56.149-54.491 61.915M-32.041 74.364C-39.726 83.222-49.875 88.262-60.406 92.737-69.935 96.786-79.412 100.957-88.935 105.02-112.301 114.99-128.062 132.913-140.149 154.472-146.07 165.031-144.544 168-132.783 170.648-116.326 174.354-100.216 174.706-83.727 169.115-55.54 159.557-38.409 139.2-29.365 112.572-20.486 86.431-6.072 64.662 13.346 45.743 25.602 33.803 34.693 18.93 48.686 8.578 63.051-2.05 78.021-11.621 93.977-19.646 100.424-22.89 107.375-24.602 114.366-26.189 119.107-27.267 124.556-28.737 123.035-34.915 121.569-40.866 116.111-39.909 111.291-39.034 89.85-35.142 70.738-26.003 53.031-13.562 48.182-10.154 43.272-6.744 38.055-3.967 27.565 1.617 22.831-.104 15.097-9.186 5.911-19.971-3.07-31.177-16.914-36.749-36.234-44.525-55.895-44.654-75.783-39.722-80.423-38.57-82.4-35.095-79.858-30.744-74.999-22.427-70.174-14.122-63.833-6.687-48.271 11.56-27.524 16.228-5.062 16.825-.57 16.945 3.865 17.243 8.187 18.496 11.222 19.376 12.219 20.746 9.982 23.792 1.208 35.74-9.423 45.145-24.435 47.854-37.627 50.236-48.086 43.734-57.205 35.381-73.34 20.601-91.901 11.282-113.637 8.625-129.391 6.7-144.709 9.325-159.801 13.775-165.948 15.589-165.662 20.526-164.07 24.6-147 68.267-117.309 91.104-69.235 85.027-56.521 83.421-44.913 78.946-33.668 73.164-32.316 72.192-31.551 69.878-28.734 71.314-29.955 72.44-30.998 73.402-32.041 74.364" fill="#483215"/>
<path transform="matrix(1,0,0,-1,690.3296,1323.6943)" d="M0 0C.563 18.041 6.33 34.147 18.22 47.892 19.656 49.552 21.415 51.04 23.28 52.196 25.796 53.755 28.064 52.601 29.943 50.708 32.614 48.019 31.591 45.351 29.819 42.666 24.417 34.482 18.834 26.616 16.086 16.769 12 2.121 13.367-11.579 19.507-25.139 20.016-26.262 20.544-27.377 21.111-28.472 23.039-32.188 23.293-35.849 19.471-38.348 15.216-41.13 11.713-38.522 9.121-35.446 4.868-30.4 3.383-23.951 2.042-17.718 .799-11.943-.521-6.062 0 0" fill="#483215"/>
<path transform="matrix(1,0,0,-1,800.4761,1228.6895)" d="M0 0C.332 6.202 13.716 16.387 19.783 14.918 25.049 13.645 25.677 9.748 23.668 5.735 20.245-1.104 13.911-4.642 6.778-6.331 2.308-7.391-.245-4.583 0 0" fill="#483215"/>
<path transform="matrix(1,0,0,-1,854.4717,1188.5459)" d="M0 0C-.02-6.353-8.774-15.216-14.962-17.175-18.72-18.364-19.535-15.232-21.777-14.501-23.287-14.008-22.926-10.421-21.824-8.393-18.453-2.192-12.997 2.04-7.241 5.706-4.062 7.731 .013 4.243 0 0" fill="#483215"/>
<path transform="matrix(1,0,0,-1,744.8521,1248.0879)" d="M0 0C.864 .131 3.415-.607 4.712-3.469 6.128-6.591 4.996-9.364 2.487-11.342-.973-14.069-4.523-16.741-8.306-18.981-11.685-20.984-15.176-20.088-17.601-17.145-20.18-14.013-19.5-10.67-16.669-7.947-12.572-4.006-8.201-.458 0 0" fill="#483215"/>
<path transform="matrix(1,0,0,-1,869.418,1154.6797)" d="M0 0C.559-4.573-1.845-8.369-4.157-12.111-5.476-14.246-7.354-15.99-10.282-15.197-13.223-14.4-14.891-12.471-15.083-9.394-15.479-3.091-13.187 2.781-11.474 8.604-10.29 12.631-4.553 12.44-1.925 8.693-.154 6.169 .209 3.203 0 0" fill="#483215"/>
<path transform="matrix(1,0,0,-1,778.8325,1232.7744)" d="M0 0C3.429-.553 7.032-.715 7.139-5.658 7.266-11.513-.737-17.064-10.173-17.039-13.879-17.029-16.857-15.395-16.967-10.869-17.096-5.545-8.57-.031 0 0" fill="#483215"/>
<path transform="matrix(1,0,0,-1,247.4565,1177.6172)" d="M0 0C.248 27.105 18.15 44.416 45.135 42.537 62.128 41.354 79.006 38.582 95.964 36.789 104.027 35.937 112.236 35.265 120.235 35.186 167.929 34.71 215.641 34.573 263.328 35.413 289.999 35.882 316.712 37.202 343.13 41.971 367.236 46.321 386.023 37.478 395.465 18.664 401.648 6.342 399.375-5.35 393.852-17.033 392.909-19.03 391.649-19.905 389.324-20.081 371.086-21.462 352.852-22.904 334.636-24.538 315.43-26.261 296.156-26.646 276.933-27.848 269.319-28.323 261.706-28.74 254.083-29.118 249.588-29.341 246.971-27.88 244.497-24.014 234.494-8.376 219.967-1.101 201.359-.686 180.426-.219 163.962-7.56 153.014-25.784 150.721-29.602 147.39-29.163 143.933-28.966 117.408-27.45 90.874-26.082 64.362-24.356 47.692-23.271 31.253-19.944 14.424-19.853 3.573-19.794-.126-13.726 0 0" fill="#e6a423"/>
<path transform="matrix(1,0,0,-1,461.5225,1121.7002)" d="M0 0C-44.332-1.726-79.056 1.04-113.813 1.805-134.076 2.25-154.264 5.694-174.515 7.457-178.854 7.835-179.988 9.498-179.616 13.439-177.493 35.943-163.161 56.413-137.754 62.358-124.155 65.541-110.298 64.919-96.439 62.793-90.643 61.904-84.57 62.981-78.63 62.849-24.227 61.632 30.143 62.172 84.51 64.787 116.986 66.349 141.555 47.995 147.505 18.873 149.629 8.479 149.162 8.944 138.674 7.319 111.253 3.069 83.545 2.44 55.983 .334 34.263-1.327 12.314 0 0 0" fill="#e6a423"/>
<path transform="matrix(1,0,0,-1,374.605,1354.042)" d="M0 0C-.359 .146-.718 .293-1.078 .439-.888 .121-.699-.198-.509-.518 33.177-20.848 95.698-21.986 117.749-2.667 116.613-1.826 115.549-2.546 114.4-2.734 102.987-4.615 91.642-7.261 80.027-7.375 53.115-7.64 26.379-5.693 0 0M71.438-119.91C59.187-119.822 51.808-110.769 54.135-98.553 55.679-90.455 59.238-83.021 62.029-75.335 65.035-67.059 66.672-58.625 65.339-49.769 63.341-36.495 55.354-28.298 43.435-23.133 29.685-17.174 15.111-14.143 .643-10.747-23.962-4.973-47.081 4.574-67.662 19.074-77.088 25.716-80.847 37.277-83.913 48.38-85.065 52.555-82.035 51.558-80.037 51.344-68.521 50.113-56.992 48.96-45.517 47.414-27.793 45.027-9.957 44.182 7.859 42.999 56.212 39.789 104.514 42.115 152.792 44.623 173.45 45.695 194.09 47.462 214.474 51.496 218.08 52.21 223.428 53.917 225.606 50.816 227.472 48.16 224.078 43.964 222.35 40.718 217.529 31.662 209.792 25.603 201.432 20.005 186.827 10.228 170.041 5.744 153.835-.097 136.528-6.334 119.997-13.666 104.306-23.645 82.579-37.461 77.632-61.338 85.429-82.82 87.118-87.476 89.1-92.097 90.121-96.909 93.048-110.694 85.313-120.011 71.438-119.91" fill="#e6a423"/>
<path transform="matrix(1,0,0,-1,373.8901,1288.4854)" d="M0 0C-21.33 .85-42.578 2.656-63.783 5.086-73.336 6.18-83.025 5.839-92.394 8.755-113.176 15.224-127.535 34.567-126.382 54.977-125.715 66.792-122.69 70.22-111.174 69.704-84.45 68.506-57.709 67.265-31.056 65.065-16.512 63.864-2.013 64.441 12.498 63.943 15.535 63.839 17.665 64.061 16.869 59.68 13.872 43.201 15.385 26.512 15.047 9.908 14.831-.723 17.023-.053 5.216-.007 3.479 0 1.741-.006 0 0" fill="#e6a423"/>
<path transform="matrix(1,0,0,-1,505.4302,1258.1836)" d="M0 0C-.713 9.894-1.197 19.811-2.267 29.665-2.622 32.94-1.719 33.639 1.108 33.501 21.691 32.496 42.284 34.11 62.713 35.529 78.39 36.618 94.517 34.677 110.021 40.428 115.825 42.581 123.177 42.256 129.74 40.267 138.269 37.682 141.265 25.147 139.32 15.342 134.909-6.908 119.694-18.68 98.458-22.455 67.506-27.958 36.171-29.992 4.727-30.373 .137-30.428-.67-28.364-.624-24.594-.523-16.403-.593-8.211-.593-.019-.395-.012-.198-.006 0 0" fill="#e6a423"/>
<path transform="matrix(1,0,0,-1,351.5767,1036.7979)" d="M0 0C20.358 16.091 39.337 31.105 58.332 46.1 69.231 54.705 80.161 63.271 91.062 71.874 92.974 73.382 94.326 75.1 97.28 72.805 128.006 48.933 158.871 25.238 191.084 .426 126.88-5.346 64.316-5.488 0 0" fill="#e6a423"/>
<path transform="matrix(1,0,0,-1,844.0249,1021.7627)" d="M0 0C-.58-1.391-1.157-3.589-2.312-5.425-13.858-23.788-28.374-39.14-47.708-49.481-53.568-52.615-67.231-45.938-68.588-39.479-69.087-37.107-67.08-37.227-66.007-36.669-44.2-25.336-28.232-7.971-15.538 12.61-13.015 16.7-11.485 16.579-8.616 13.418-5.163 9.614-.559 6.645 0 0" fill="#e6a423"/>
<path transform="matrix(1,0,0,-1,798.4175,982.1699)" d="M0 0C4.918-.553 9.697-2.587 12.991-5.782 16.301-8.991 12.767-13.368 10.891-16.286 5.599-24.514 .382-33.103-6.477-39.929-14.241-47.656-23.201-54.466-33.749-58.48-34.787-58.875-36.674-59.081-37.18-58.506-40.93-54.241-42.167-48.982-42.363-43.443-42.505-39.418-42.393-35.865-37.795-33.556-24.218-26.737-12.909-17.331-6.837-2.913-5.301 .735-2.648-.283 0 0" fill="#e6a423"/>
<path transform="matrix(1,0,0,-1,856.2407,1051.9141)" d="M0 0C2.383-8.784 2.758-15.922 1.79-23.437-.6-41.973-12.907-44.444-28.078-39.498-36.092-36.885-36.008-36.172-29.393-30.798-18.639-22.062-9.042-12.186 0 0" fill="#e6a423"/>
<path transform="matrix(1,0,0,-1,721.9038,967.0322)" d="M0 0C-.207-1.853-.116-4.153-.765-6.222-2.292-11.091-8.202-13.458-13.688-11.587-18.781-9.851-18.521-6.081-17.231-1.944-16.719-.301-16.437 1.426-15.805 3.018-13.878 7.874-10.974 12.3-5.108 11.256 .887 10.19-.626 4.563 0 0" fill="#e6a423"/>
<path transform="matrix(1,0,0,-1,174.2271,1313.7969)" d="M0 0C-6.984-5.766-13.527-11.352-20.264-16.693-38.443-31.108-58.767-37.425-82.051-33.362-86.73-32.546-86.407-31.253-84.724-27.806-74.338-6.542-46.216 8.376-22.695 4.823-15.208 3.692-7.327 4.448 0 0" fill="#e6a423"/>
<path transform="matrix(1,0,0,-1,112.3237,1222.5967)" d="M0 0C29.115 10.546 63.041-20.157 69.317-45.777 45.597-43.53 10.662-20.459 0 0" fill="#e6a423"/>
<path transform="matrix(1,0,0,-1,228.7178,1375.7119)" d="M0 0C-4.361-8.317-10.444-13.523-17.458-17.625-27.262-23.359-37.677-27.563-49.247-27.795-51.198-27.833-54.059-29.158-55.092-26.316-55.859-24.211-53.753-22.789-52.608-21.232-41.373-5.96-25.595-.354-7.358-.006-5.221 .035-3.082 0 0 0" fill="#e6a423"/>
<path transform="matrix(1,0,0,-1,196.6768,1301.3477)" d="M0 0C1.043-.962 2.086-1.924 3.307-3.05 .49-4.486-.275-2.172-1.627-1.2-1.084-.8-.542-.4 0 0" fill="#f9f5de"/>
<path transform="matrix(1,0,0,-1,374.6089,1354.0371)" d="M0 0C26.375-5.698 53.111-7.645 80.023-7.38 91.638-7.266 102.983-4.62 114.396-2.739 115.545-2.551 116.609-1.831 117.745-2.682 95.694-21.991 33.173-20.853-.513-.522Z" fill="#483215"/>
<path transform="matrix(1,0,0,-1,374.0957,1354.5596)" d="M0 0C-.189 .319-.379 .639-.568 .957-.209 .811 .15 .664 .511 .521 .513 .522 0 0 0 0" fill="#483215"/>
</g>
<text fill="#e6a423" xml:space="preserve" transform="matrix(1 0 -0 1 0 2232)" font-size="400" font-family="KenyanCoffeeRg"><tspan y="-999.4785" x="982.3589 1145.1589 1262.7589 1380.3589 1449.1589 1616.7589 1699.9589 1849.5588">BEE HIVE</tspan></text>
<text fill="#333131" xml:space="preserve" transform="matrix(1 0 -0 1 0 2232)" font-size="200" font-family="Lato"><tspan y="-807.7021" x="1133.5967 1315.7966 1417.9966 1562.9966 1707.9966">VILLA</tspan></text>
</g>
</svg>
